<svg width="40" height="21" viewBox="0 0 40 21" xmlns="http://www.w3.org/2000/svg"><title>eye-icon</title><g fill="#E2013E" fill-rule="evenodd"><path d="M20.588 11.667a.585.585 0 0 1-.588-.584c0-.322.263-.583.588-.583.326 0 .588.26.588.583a.585.585 0 0 1-.588.584M20 8.167a2.343 2.343 0 0 0-2.353 2.333A2.343 2.343 0 0 0 20 12.833c1.3 0 2.353-1.044 2.353-2.333A2.343 2.343 0 0 0 20 8.167"/><path d="M20 16.775c-3.471 0-6.286-2.795-6.286-6.243 0-3.448 2.815-6.244 6.286-6.244 3.471 0 6.286 2.796 6.286 6.244S23.47 16.775 20 16.775m19.04-8C34.855 5.364 26.15.064 20 .064c-6.15 0-14.856 5.3-19.04 8.713a2.593 2.593 0 0 0 .055 4.072C5.219 16.09 13.875 21 20 21s14.78-4.909 18.985-8.152a2.593 2.593 0 0 0 .054-4.072"/></g></svg>