<svg xmlns="http://www.w3.org/2000/svg" xmlns:xlink="http://www.w3.org/1999/xlink" viewBox="0 0 205.3 205.3"><style>.st0,.st1{fill:#d8d9da;stroke:#b1b3b6;stroke-width:4;stroke-miterlimit:10}.st1{fill:#fff;stroke:#b2b4b6}.st2{fill:#b2b4b6}.st3{fill:#dcddde}.st4{fill:none;stroke:#cfd1d2;stroke-linecap:round;stroke-linejoin:round;stroke-miterlimit:10}.st5{fill:#fff}.st6{fill:#fde9dc}.st7{fill:#2c152b}.st8{fill:#009876}.st9{fill:#2d142c}.st10,.st11{fill-rule:evenodd;clip-rule:evenodd;fill:#fde9dc}.st11{fill:#2d142c}.st12{fill:none;stroke:#2c152b;stroke-width:9;stroke-miterlimit:10}.st13{fill:#cc1f3a}.st14{fill:#f9a120}.st15{fill:#f36c44}.st16{fill-rule:evenodd;clip-rule:evenodd;fill:#cc1f3a}.st17{fill:none;stroke:#2d142c;stroke-width:5;stroke-miterlimit:10}.st18{clip-path:url(#SVGID_2_)}.st19{clip-path:url(#SVGID_4_);fill:#fde9dc}.st20{clip-path:url(#SVGID_6_)}.st21{clip-path:url(#SVGID_8_);fill:#fde9dc}</style><g id="Layer_1"><path class="st6" d="M102.7 201.3C48.3 201.3 4 157.1 4 102.7S48.3 4 102.7 4s98.7 44.3 98.7 98.7-44.3 98.6-98.7 98.6z"/><path class="st13" d="M102.7 47.3c-29.9 0-54.2 24.3-54.2 54.2h54.2V47.3z"/><path class="st14" d="M156.9 101.5c0-26.2-18.6-48.1-43.3-53.1-3.5-.7-7.2-1.1-10.9-1.1v54.2h54.2z"/><path class="st15" d="M102.7 155.8c29.9 0 54.2-24.3 54.2-54.2h-54.2v54.2z"/><path class="st8" d="M48.4 101.5c0 29.9 24.3 54.2 54.2 54.2v-54.2H48.4z"/><path class="st9" d="M113.1 186.1l-9.5-22.6a.77.77 0 0 0-1.4 0l-8.8 22.9c-.2.6.4 1.3 1.1.9l5.9-3.2.2 14c0 .7.6 1.3 1.3 1.3h3.2c.7 0 1.3-.6 1.3-1.3l-.2-14 6 3c.5.3 1.1-.3.9-1zm-33 5.8l5-12c.1-.3.6-.3.7 0l6.8 17.6c.1.3-.2.7-.6.5l-3.1-1.7-2.3 2c0 .4-.3.7-.7.7h-1.7c-.4 0-.7-.3-.7-.7l.1-7.4-3.2 1.6c-.1.1-.4-.2-.3-.6z"/><path class="st9" d="M75.6 195.4l5-12c.1-.3.6-.3.7 0l4.7 12.1c.1.3-.2.7-.6.5l-3.1.4-.1 5.3c0 .4-.3.7-.7.7h-1.7c-.4 0-.7-.3-.7-.7l.1-7.4-3.2 1.6c-.2.2-.6-.2-.4-.5z"/><path class="st9" d="M71.7 194.2l4-9.6c.1-.3.5-.3.6 0l3.7 9.7c.1.3-.2.5-.4.4l-2.5-1.4-.1 5.9c0 .3-.2.5-.5.5h-1.3c-.3 0-.5-.2-.5-.5l.1-5.9-2.5 1.3c-.4.1-.7-.1-.6-.4z"/><path class="st9" d="M64.5 185.4l10.1-8.2c.3-.2.7 0 .6.4L73 196.3c0 .4-.5.5-.7.2l-2-3-3 .7c-.2.3-.6.4-.9.3l-1.5-.8c-.3-.2-.4-.6-.3-.9l3.6-6.5-3.6-.1c-.2-.1-.4-.6-.1-.8z"/><path class="st9" d="M58.9 186.3l10.1-8.2c.3-.2.7 0 .6.4L68 191.3c0 .4-.5.5-.7.2l-3-1.1-2.6 4.6c-.2.3-.6.4-.9.3l-1.5-.8c-.3-.2-.4-.6-.3-.9l2.6-4.8L59 187c-.3 0-.4-.4-.1-.7z"/><path class="st9" d="M54.8 185.5l8-6.6c.2-.2.5 0 .5.3l-1.2 10.3c0 .3-.4.4-.6.1l-1.6-2.4-2.8 5.2c-.1.3-.5.4-.7.2l-1.2-.6c-.3-.1-.4-.5-.2-.7l2.8-5.2-2.8-.1c-.3.1-.4-.3-.2-.5zm71.2 6.4l-5-12c-.1-.3-.6-.3-.7 0l-6.8 17.6c-.1.3.2.7.6.5l3.1-1.7 2.3 2c0 .4.3.7.7.7h1.7c.4 0 .7-.3.7-.7l-.1-7.4 3.2 1.6c.1.1.5-.2.3-.6z"/><path class="st9" d="M130.6 195.4l-5-12c-.1-.3-.6-.3-.7 0l-4.7 12.1c-.1.3.2.7.6.5l3.1.4.1 5.3c0 .4.3.7.7.7h1.7c.4 0 .7-.3.7-.7l-.1-7.4 3.2 1.6c.2.2.5-.2.4-.5z"/><path class="st9" d="M134.4 194.2l-4-9.6c-.1-.3-.5-.3-.6 0l-3.7 9.7c-.1.3.2.5.4.4l2.5-1.4.1 5.9c0 .3.2.5.5.5h1.3c.3 0 .5-.2.5-.5l-.1-5.9 2.5 1.3c.4.1.7-.1.6-.4z"/><path class="st9" d="M141.6 185.4l-10.1-8.2c-.3-.2-.7 0-.6.4l2.2 18.7c0 .4.5.5.7.2l2-3 3 .7c.2.3.6.4.9.3l1.5-.8c.3-.2.4-.6.3-.9l-3.6-6.5 3.6-.1c.2-.1.4-.6.1-.8z"/><path class="st9" d="M147.3 186.3l-10.1-8.2c-.3-.2-.7 0-.6.4l1.5 12.9c0 .4.5.5.7.2l3-1.1 2.6 4.6c.2.3.6.4.9.3l1.5-.8c.3-.2.4-.6.3-.9l-2.6-4.8 2.6-1.8c.3-.1.5-.5.2-.8z"/><path class="st9" d="M151.3 185.5l-8-6.6c-.2-.2-.5 0-.5.3l1.2 10.3c0 .3.4.4.6.1l1.6-2.4 2.8 5.2c.1.3.5.4.7.2l1.2-.6c.3-.1.4-.5.2-.7l-2.8-5.2 2.8-.1c.3.1.4-.3.2-.5zM35.1 149.8l-1.6-2.3 8.7-12.7 1.6 2.3-1.8 2.6 3.3 4.8 3.1-.7 1.6 2.3-14.9 3.7zm2.4-3.3l5.2-1.2-2.2-3.2-3 4.4zm-12.6-22.8l2.4 1.1c-.8 1.7-.9 3.3-.4 4.8.5 1.3 1.3 2.2 2.6 2.7 1.2.5 2.5.6 3.7.1.9-.3 1.6-.8 2.2-1.5.5-.7.9-1.4 1-2.3s0-1.7-.3-2.6c-.3-.7-.7-1.4-1.2-1.9s-1.3-1-2.3-1.4l1.1-2.4c1.3.6 2.4 1.3 3.1 2 .7.7 1.3 1.7 1.7 2.8.8 2.1.8 4 0 5.9-.8 1.8-2.3 3.1-4.3 3.9-1.3.5-2.6.7-3.9.5s-2.4-.8-3.5-1.6c-1.1-.9-1.8-2-2.3-3.3-.4-1.1-.6-2.3-.5-3.5s.4-2.2.9-3.3zm-3-19.4l2 1.7c-1.2 1.5-1.7 3-1.5 4.6.2 1.4.8 2.5 1.8 3.3s2.2 1.1 3.6 1c.9-.1 1.8-.4 2.5-.9s1.2-1.2 1.5-2c.3-.8.4-1.7.3-2.6-.1-.8-.3-1.5-.7-2.1-.4-.6-1-1.3-1.9-2l1.7-2.1c1.2.9 2 1.8 2.5 2.7s.8 1.9 1 3.1c.3 2.2-.2 4.1-1.4 5.7-1.2 1.6-2.9 2.5-5.1 2.8-1.4.2-2.7 0-3.9-.5s-2.2-1.3-3-2.4c-.8-1.1-1.3-2.4-1.5-3.8-.1-1.2 0-2.3.3-3.5.4-1.1 1-2.1 1.8-3zm-2.3-6.4l.7-7.8 2.7.2-.4 5.1 2.6.2.4-5.1 2.6.2-.4 5.1 3.8.3.4-5.1 2.7.2L34 99l-14.4-1.1zm5.7-21l1.2 2.4c-1.1.4-1.8 1-2 1.7-.1.3-.1.7.1.9s.3.4.5.5c.2.1.5 0 .7-.1.3-.1 1.1-.6 2.3-1.5 1.1-.8 1.8-1.3 2.1-1.4.7-.4 1.3-.6 1.9-.7.6-.1 1.1-.1 1.7.1 1.1.3 2 .9 2.5 1.9s.6 2.1.3 3.4c-.3 1-.7 1.8-1.4 2.4-.7.6-1.6 1-2.8 1.3l-.8-2.6c1.4-.3 2.2-1 2.5-1.8.1-.5.1-.9-.1-1.2-.2-.4-.4-.6-.8-.7-.3-.1-.7 0-1 .1-.4.2-1 .5-1.9 1.2-1.6 1.2-2.8 1.9-3.6 2.2s-1.5.3-2.2.1c-1-.3-1.7-.8-2.2-1.8-.5-.9-.6-1.9-.3-3 .2-.7.5-1.3 1-1.9s1.2-1 2.3-1.5zM30.6 64l.8 2.6c-1.2.2-1.9.7-2.3 1.4-.1.3-.1.6-.1.9.1.3.2.5.4.6.2.1.5.1.7.1.4-.1 1.2-.4 2.5-1.1 1.2-.6 2-.9 2.3-1 .7-.3 1.4-.4 2-.4.6 0 1.1.1 1.7.4 1.1.5 1.8 1.3 2.1 2.3.4 1.1.3 2.2-.3 3.4-.4.9-1 1.6-1.8 2.1s-1.8.7-3 .8l-.3-2.7c1.4-.1 2.4-.6 2.7-1.4.2-.4.2-.8.1-1.2-.1-.4-.3-.7-.7-.8-.3-.1-.6-.2-1-.1s-1.1.4-2 .8c-1.8.9-3.1 1.4-4 1.5-.8.1-1.5 0-2.2-.2-.9-.4-1.5-1.1-1.9-2.1s-.3-2 .2-3c.3-.7.7-1.2 1.3-1.7.9-.5 1.7-.9 2.8-1.2zm1.4-6.1l1.5-2.3 12.1 7.8-1.5 2.3L32 57.9zm16.1 1.6l-10.8-9.4 1.5-1.7c.9-1 1.6-1.7 2.1-2 .7-.5 1.5-.7 2.3-.7.8 0 1.5.3 2.2.9.4.4.7.8.9 1.2.2.5.3 1 .2 1.7.9-.4 1.7-.5 2.4-.4.7.1 1.4.4 2 1 .6.5 1 1.2 1.3 1.9s.2 1.5.1 2.2c-.2.7-.7 1.5-1.4 2.4l-2.8 2.9zm-7-9.8l2.3 2 .4-.5c.4-.5.7-1 .7-1.4s-.2-.8-.5-1.1c-.3-.3-.7-.4-1.1-.4-.4.1-.8.3-1.2.8l-.6.6zm4.1 3.6l2.8 2.4.5-.5c.7-.9 1.1-1.5 1.2-2s-.1-.9-.6-1.3-1-.6-1.6-.4-1.2.6-1.9 1.4l-.4.4zm2.5-14l2.1-1.8 9.3 10.9-2.1 1.8-9.3-10.9zm7.2-5.8l2.3-1.5 6.4 9.8 3.3-2.2 1.4 2.2-5.6 3.7-7.8-12zm10.3-6.1l2.4-1.2 6.3 12.9-2.4 1.2-6.3-12.9zm7-3.3l7.5-2.6.9 2.6-2.5.9 3.8 11-2.6.9-3.8-11-2.5.8-.8-2.6zm12.1-3.8l2.9-.5 3.4 4.7 1.8-5.5 2.9-.4-2.9 8.7 1 6.1-2.7.4-1-6.1-5.4-7.4zm33.3 1.4l-2.2 1.5c-.6-1.1-1.2-1.7-2-1.8-.4 0-.7 0-.9.2s-.4.4-.4.6c0 .2 0 .5.2.7.2.3.8 1 1.7 2.1.9 1 1.5 1.6 1.7 1.9.5.6.8 1.2 1 1.8.2.5.2 1.1.1 1.7-.2 1.2-.7 2.1-1.6 2.7-.9.7-2 .9-3.3.7-1-.1-1.9-.5-2.5-1.1s-1.2-1.5-1.6-2.6L110 29c.5 1.4 1.2 2.1 2.1 2.2.5.1.9 0 1.2-.2s.6-.5.6-.9c0-.3 0-.7-.2-1-.2-.4-.7-.9-1.4-1.7-1.4-1.5-2.2-2.6-2.6-3.3s-.5-1.5-.4-2.1c.1-1 .6-1.8 1.5-2.4.8-.6 1.8-.8 2.9-.7.7.1 1.4.4 2 .8.6.3 1.3 1 1.9 2zm18.9 6.4l-2.4 1.1c-.8-1.7-1.9-2.9-3.4-3.4-1.3-.5-2.5-.4-3.7.2-1.2.6-2 1.5-2.5 2.8-.3.9-.4 1.8-.3 2.6.1.8.5 1.6 1.1 2.2.6.7 1.3 1.1 2.2 1.5.7.3 1.5.4 2.2.3.7-.1 1.6-.3 2.6-.8l1.1 2.4c-1.3.6-2.5 1-3.6 1s-2.1-.1-3.2-.5c-2.1-.8-3.6-2-4.4-3.8-.9-1.8-.9-3.8-.2-5.8.5-1.3 1.2-2.4 2.2-3.3 1-.8 2.2-1.4 3.5-1.6 1.4-.2 2.7-.1 4 .4 1.1.4 2.1 1 3 1.9.7.6 1.3 1.6 1.8 2.8zm13 4.4c1.7 1.1 2.7 2.7 3.1 4.8s0 3.9-1.2 5.7c-1.2 1.7-2.8 2.8-4.8 3.2s-3.9 0-5.6-1.2c-1.8-1.2-2.8-2.8-3.2-4.9-.3-2 .1-3.9 1.2-5.6.8-1.1 1.8-2 3-2.6 1.2-.6 2.5-.8 3.8-.7 1.4.1 2.6.5 3.7 1.3zm-1.5 2.2c-1.1-.7-2.3-1-3.6-.7-1.3.3-2.3 1-3.1 2.2-.9 1.3-1.1 2.7-.7 4.1.3 1.1 1 2 1.9 2.6 1.1.7 2.2 1 3.5.7 1.3-.3 2.3-1 3.1-2.1.8-1.1 1-2.3.8-3.6-.2-1.4-.8-2.5-1.9-3.2zm12.6 7.1l1.9 2-6.9 6.3c-.6.5-1 1-1.1 1.3s-.2.7-.1 1c.1.4.3.7.6 1.1.3.4.7.6 1.1.7.4.1.8.1 1.1 0 .3-.1.9-.5 1.6-1.2l6.6-6 1.9 2-6.3 5.8c-1.1 1-1.9 1.6-2.4 1.9-.5.3-1.1.4-1.8.4s-1.3-.1-1.9-.4-1.2-.7-1.7-1.3c-.7-.8-1.1-1.6-1.3-2.5s-.1-1.7.2-2.4c.3-.7 1.1-1.7 2.4-2.8l6.1-5.9zm10 11.8l4.3 6.7-2.3 1.4-1.4-2.2-9.8 6.3-1.5-2.3 9.8-6.3-1.4-2.1 2.3-1.5zm8.1 19.3l-2.4-1.1c.6-1 .8-1.9.5-2.6-.1-.3-.3-.6-.6-.7-.3-.1-.5-.2-.7-.1s-.4.3-.5.5c-.2.3-.5 1.2-.9 2.6-.4 1.3-.6 2.1-.8 2.4-.3.7-.6 1.3-1 1.7s-.8.7-1.4 1c-1.1.5-2.1.5-3.2 0-1-.4-1.8-1.3-2.3-2.5-.4-.9-.5-1.9-.4-2.8s.6-1.8 1.4-2.7l2.2 1.6c-.9 1.1-1.2 2.1-.8 2.9.2.4.5.7.8.9.4.2.7.2 1.1.1.3-.1.6-.4.8-.7.2-.4.4-1 .7-2.1.5-1.9 1.1-3.3 1.5-4 .5-.7 1-1.2 1.6-1.5.9-.4 1.8-.4 2.8 0 1 .4 1.7 1.1 2.1 2.2.3.7.4 1.4.4 2.1-.1.9-.4 1.8-.9 2.8zm4.8 28l-2-1.7c1.2-1.4 1.8-2.9 1.6-4.6-.1-1.4-.7-2.5-1.7-3.3-1-.8-2.2-1.2-3.6-1.1-1 .1-1.8.4-2.5.9s-1.2 1.1-1.6 1.9c-.3.8-.5 1.7-.4 2.6.1.8.3 1.5.6 2.1.4.6 1 1.3 1.8 2l-1.8 2c-1.1-1-1.9-1.9-2.4-2.8-.5-.9-.8-2-.9-3.2-.2-2.2.3-4.1 1.6-5.7 1.3-1.5 3-2.4 5.2-2.6 1.4-.1 2.7.1 3.9.6 1.2.5 2.1 1.4 2.9 2.5.8 1.1 1.2 2.4 1.4 3.8.1 1.2 0 2.3-.4 3.5-.3 1.2-.9 2.2-1.7 3.1zM185 112l-.4 2.7-15 3.4.4-2.8 3.1-.7.8-5.8-2.8-1.6.4-2.8L185 112zm-3.9.9l-4.6-2.6-.5 3.8 5.1-1.2zm.4 15.4l-1 2.5-10.5-.8 7.9 7-1 2.5-14.2-3.4 1-2.4 9 2.1-7.2-6.3.9-2.2 9.5.7-7.7-5 1-2.5 12.3 7.8zm-9.4 18.9l-1.7 2.3c-.9 1.3-1.7 2.1-2.4 2.5-.6.4-1.3.6-2.1.5s-1.5-.4-2.2-.9c-.8-.6-1.3-1.3-1.6-2.1-.2-.8-.2-1.7.1-2.5.2-.5.7-1.3 1.5-2.5l-4.9-3.6 1.6-2.2 11.7 8.5zm-6.1-1.1l-.5.7c-.4.6-.6 1-.7 1.2s-.1.5 0 .8.3.5.5.7c.4.3.9.4 1.4.2.3-.1.8-.6 1.3-1.2l.5-.6-2.5-1.8zm-.4 18.6l-22-9c-.6-.2-1.2.4-.9 1l9.6 21.7c.3.6 1.2.6 1.4-.1l1.8-6.2 9.7 9.4c.5.5 1.3.5 1.7 0l2.1-2.2c.5-.5.5-1.3 0-1.7l-9.7-9.4 6.2-2c.7-.4.7-1.3.1-1.5zM54.5 179.4l9.3-22.7c.3-.6-.4-1.2-1-1l-22.4 10c-.6.3-.6 1.2.1 1.4l6.4 1.9-9.7 10c-.5.5-.5 1.3 0 1.8l2.3 2.2c.5.5 1.3.5 1.8 0l9.7-10 2.1 6.4c.2.6 1.1.7 1.4 0z"/><path class="st10" d="M87.1 67.5c-3.6.5-10.2 2.3-13.1 5.3l-.1.1-.1.1c-3 3-4.6 9.8-5 13.5-.1 1.1.9 2.1 2 2C74.4 88 81 86.2 84 83.3l.1-.1.1-.1c3-3 4.6-9.8 5-13.5.1-1.2-.9-2.2-2.1-2.1z"/><ellipse transform="rotate(-45.001 78.834 78.103)" class="st16" cx="78.8" cy="78.1" rx="4.3" ry="4.3"/><path class="st10" d="M77.7 77c-.6.6-.6 1.6 0 2.2.6.6 1.6.6 2.2 0 .6-.6.6-1.6 0-2.2-.6-.6-1.6-.6-2.2 0zm2 1.4c-.2.2-.4.2-.6 0-.2-.2-.2-.4 0-.6.2-.2.4-.2.6 0 .1.2.1.4 0 .6z"/><path class="st6" d="M132.1 80.9l2.7-6 2.2-2.3c.5-.6.5-1.4-.1-2l-4.6-4.3c-.6-.5-1.4-.5-2 .1l-2.2 2.3-5.8 3c-.8.4-1 1.6-.3 2.2l7.9 7.4c.7.7 1.8.5 2.2-.4zm-10.9 1.9c2.1 1.9 5.2 3.1 7.1 1 .5-.6.5-1.4-.1-2-.6-.5-1.4-.5-2 .1-.7.7-2.3-.2-3.2-1.1-.9-.8-1.9-2.4-1.3-3.1.5-.6.5-1.4-.1-2-.6-.5-1.4-.5-2 .1-1.8 2-.5 5.1 1.6 7z"/><path class="st6" d="M130.6 88.1c.5-.6.5-1.4-.1-2s-1.4-.5-2 .1c-2.1 2.3-6.3 0-8.5-2.1-2.3-2.1-4.8-6.1-2.7-8.4.5-.6.5-1.4-.1-2s-1.4-.5-2 .1c-3.3 3.5-.9 8.9 2.8 12.3s9.2 5.6 12.6 2z"/><path class="st7" d="M102.7 8c52.3 0 94.7 42.4 94.7 94.7s-42.4 94.7-94.7 94.7C50.4 197.3 8 154.9 8 102.7S50.4 8 102.7 8m0-8C46.1 0 0 46.1 0 102.7s46.1 102.7 102.7 102.7 102.7-46.1 102.7-102.7S159.3 0 102.7 0z"/><circle class="st17" cx="102.7" cy="101.5" r="56.4"/><defs><path id="SVGID_1_" d="M89.5 125.4c3.2-3.2 3.2-8.4 0-11.6-3.2-3.2-8.4-3.2-11.6 0-2 2-2.8 4.8-2.3 7.4l-5.3 5.3c-.5.5-.5 1.4 0 1.9l4.6 4.6c.5.5 1.4.5 1.9 0l5.3-5.3c2.7.4 5.4-.3 7.4-2.3m-4.4-.7l.5-.5c1.8-1.8 1.7-4.6-.1-6.4-1.8-1.8-4.7-1.8-6.4-.1l-.5.5c.2-1 .7-1.9 1.4-2.6 2.1-2.1 5.5-2 7.6.1 2.1 2.1 2.2 5.6.1 7.6-.7.7-1.6 1.2-2.6 1.4"/></defs><use xlink:href="#SVGID_1_" overflow="visible" fill-rule="evenodd" clip-rule="evenodd" fill="#fde9dc"/><clipPath id="SVGID_2_"><use xlink:href="#SVGID_1_" overflow="visible"/></clipPath><g class="st18"><defs><path id="SVGID_3_" transform="rotate(-45.001 81.133 122.166)" d="M69.2 114h23.9v16.4H69.2z"/></defs><use xlink:href="#SVGID_3_" overflow="visible" fill="#fde9dc"/><clipPath id="SVGID_4_"><use xlink:href="#SVGID_3_" overflow="visible"/></clipPath><path transform="rotate(-45.001 81.133 122.166)" class="st19" d="M65.5 110.2h31.3v23.9H65.5z"/></g><defs><path id="SVGID_5_" d="M122.5 111.4l-7.8 7.8-.1.1-.1.1-1.4 1.4c-.5.5-.5 1.4 0 2l12 12c.6.6 1.5.6 2 0l1.4-1.4.1-.1.1-.1.7-.7 1.9 1.9c.4.4 1.1.6 1.7.3.5-.3.8-.9.7-1.5l-.1-.3.3.1c.5.1.9-.1 1.3-.4.1-.1.2-.2.2-.3.3-.5.2-1.2-.3-1.7l-1.9-1.9 3.3-3.3c.5-.5.5-1.4 0-2l-12-12c-.5-.5-1.4-.5-2 0zm11 13l-3.3 3.3-1.9 1.9-.7.7-10-10 6-6 9.9 10.1z"/></defs><use xlink:href="#SVGID_5_" overflow="visible" fill-rule="evenodd" clip-rule="evenodd" fill="#fde9dc"/><clipPath id="SVGID_6_"><use xlink:href="#SVGID_5_" overflow="visible"/></clipPath><g class="st20"><defs><path id="SVGID_7_" transform="rotate(-45.001 126.264 124.639)" d="M118.2 112.7h16.2v23.9h-16.2z"/></defs><use xlink:href="#SVGID_7_" overflow="visible" fill="#fde9dc"/><clipPath id="SVGID_8_"><use xlink:href="#SVGID_7_" overflow="visible"/></clipPath><path transform="rotate(-45.001 126.264 124.639)" class="st21" d="M114.6 109.1h23.2v31h-23.2z"/></g></g></svg>