<svg width="26" height="26" viewBox="0 0 26 26" xmlns="http://www.w3.org/2000/svg"><title>settings</title><g fill="#662664" fill-rule="evenodd"><path d="M10 13a3 3 0 1 0 6 0 3 3 0 0 0-6 0"/><path d="M19.397 13A6.404 6.404 0 0 1 13 19.397 6.404 6.404 0 0 1 6.604 13 6.404 6.404 0 0 1 13 6.603 6.404 6.404 0 0 1 19.397 13m5.772-2.727l-2.28-1.369.645-2.58a1.714 1.714 0 0 0-.45-1.626l-1.782-1.78a1.713 1.713 0 0 0-1.626-.451l-2.58.645-1.369-2.28A1.712 1.712 0 0 0 14.26 0h-2.52c-.6 0-1.158.316-1.467.831l-1.369 2.28-2.58-.644a1.713 1.713 0 0 0-1.626.45l-1.78 1.781a1.712 1.712 0 0 0-.451 1.626l.645 2.58-2.28 1.369c-.516.31-.832.866-.832 1.468v2.518c0 .602.316 1.159.831 1.468l2.281 1.369-.645 2.58c-.146.583.025 1.2.45 1.626l1.781 1.78a1.713 1.713 0 0 0 1.626.451l2.58-.645 1.369 2.28c.31.516.867.832 1.468.832h2.519c.6 0 1.158-.316 1.467-.831l1.369-2.28 2.58.644c.584.146 1.2-.025 1.626-.45l1.781-1.781a1.714 1.714 0 0 0 .45-1.626l-.645-2.58 2.281-1.369c.516-.31.831-.866.831-1.468v-2.518c0-.602-.315-1.159-.83-1.468"/></g></svg>