<svg width="33" height="29" viewBox="0 0 33 29" xmlns="http://www.w3.org/2000/svg"><title>speaker</title><g fill="#FFA11B" fill-rule="evenodd"><path d="M6.027 7.945H1.84C.824 7.945 0 8.775 0 9.8v8.442c0 1.024.825 1.854 1.84 1.854h4.188l8.22 2.883c1.196.418 2.444-.476 2.444-1.752V6.815c0-1.276-1.248-2.17-2.444-1.752l-8.22 2.882zm19.937 6.075c0-3.78-1.741-7.85-5.564-7.85a1.862 1.862 0 0 0-1.855 1.869c0 1.032.83 1.869 1.855 1.869 1.265 0 1.855 2.454 1.855 4.113 0 1.658-.59 4.112-1.855 4.112a1.862 1.862 0 0 0-1.855 1.87c0 1.032.83 1.87 1.855 1.87 3.823 0 5.564-4.07 5.564-7.852"/><path d="M22.66 0a1.862 1.862 0 0 0-1.854 1.87c0 1.032.83 1.869 1.854 1.869 4.167 0 5.68 6.148 5.68 10.282 0 4.133-1.513 10.282-5.68 10.282a1.862 1.862 0 0 0-1.854 1.869c0 1.032.83 1.87 1.854 1.87 6.45 0 9.389-7.268 9.389-14.021C32.049 7.268 29.11 0 22.66 0"/></g></svg>