<svg width="22" height="32" viewBox="0 0 22 32" xmlns="http://www.w3.org/2000/svg"><title>touch</title><path d="M17.188 14.629v-.917c0-3.327-2.776-6.033-6.188-6.033s-6.188 2.706-6.188 6.033v.917a6.973 6.973 0 0 1-1.145-3.822c0-3.942 3.29-7.15 7.333-7.15s7.333 3.208 7.333 7.15a6.973 6.973 0 0 1-1.145 3.822M22 11.05C22 4.957 17.065 0 11 0S0 4.957 0 11.05c0 3.79 1.91 7.14 4.813 9.131v9.977c0 1.017.82 1.842 1.833 1.842h8.708a1.838 1.838 0 0 0 1.834-1.842v-9.977A11.06 11.06 0 0 0 22 11.051" fill="#03B58B" fill-rule="evenodd"/></svg>